<?xml version="1.0" encoding="UTF-8"?>
<svg id="Ebene_1" data-name="Ebene 1" xmlns="http://www.w3.org/2000/svg" version="1.1" viewBox="0 0 539.1 156.8">
  <defs>
    <style>
      .cls-1 {
        fill: #000;
        stroke-width: 0px;
      }
    </style>
  </defs>
  <path class="cls-1" d="M149.9,131.9V24.7h24.8v85.8h26.2v21.4h-51Z"/>
  <path class="cls-1" d="M322.4,131.9l-20.6-58.9v58.9h-24.8V24.7h24.8l20.7,59V24.7h24.8v107.2h-24.9Z"/>
  <path class="cls-1" d="M418,131.9V24.7h24.8v107.2h-24.8Z"/>
  <path class="cls-1" d="M510.5,113.4c1.1-2.3,1.6-5.3,1.6-8.9v-54.2c0-16.6-13.5-27.8-30.9-27.8s-31.1,11.3-31.1,27.8v56c0,16.7,13.4,28,29,28s13.2-2.4,16.9-5.5l3.1,3.1h15.2v-14.8l-3.8-3.8h0ZM487.4,105.2c0,3.4-2.9,5.3-6.2,5.3s-6.2-1.9-6.2-5.3v-53.8c0-3.4,2.9-5.3,6.2-5.3s6.2,1.9,6.2,5.3v53.8Z"/>
  <path class="cls-1" d="M126.9,46v85.9h-24.8V46h-17.4v-21.2h59.7v21.2h-17.5Z"/>
  <path class="cls-1" d="M395,46v85.9h-24.8V46h-17.4v-21.2h59.7v21.2h-17.5Z"/>
  <path class="cls-1" d="M74.1,24.7h-30.6l-18.7,107.2h23.7l3.2-21.4h14.3l3.2,21.4h23.7l-18.7-107.2h0ZM52.6,94.6l4.1-38h4.1l4.1,38h-12.4.1Z"/>
  <path class="cls-1" d="M253.2,24.7h-30.6l-18.7,107.2h23.7l3.2-21.4h14.3l3.2,21.4h23.7l-18.7-107.2h-.1ZM231.7,94.6l4.1-38h4.1l4.1,38h-12.4,0Z"/>
</svg>